<svg width="125" height="86" viewBox="0 0 125 86" fill="none" xmlns="http://www.w3.org/2000/svg">
<g clip-path="url(#clip0_1_10)">
<path d="M23.388 14.756C23.988 13.82 24.816 13.064 25.872 12.488C26.928 11.912 28.164 11.624 29.58 11.624C31.236 11.624 32.736 12.044 34.08 12.884C35.424 13.724 36.48 14.924 37.248 16.484C38.04 18.044 38.436 19.856 38.436 21.92C38.436 23.984 38.04 25.808 37.248 27.392C36.48 28.952 35.424 30.164 34.08 31.028C32.736 31.868 31.236 32.288 29.58 32.288C28.188 32.288 26.952 32 25.872 31.424C24.816 30.848 23.988 30.104 23.388 29.192V41.576H17.232V11.912H23.388V14.756ZM32.172 21.92C32.172 20.384 31.74 19.184 30.876 18.32C30.036 17.432 28.992 16.988 27.744 16.988C26.52 16.988 25.476 17.432 24.612 18.32C23.772 19.208 23.352 20.42 23.352 21.956C23.352 23.492 23.772 24.704 24.612 25.592C25.476 26.48 26.52 26.924 27.744 26.924C28.968 26.924 30.012 26.48 30.876 25.592C31.74 24.68 32.172 23.456 32.172 21.92ZM40.4416 21.92C40.4416 19.856 40.8256 18.044 41.5936 16.484C42.3856 14.924 43.4536 13.724 44.7976 12.884C46.1416 12.044 47.6416 11.624 49.2976 11.624C50.7136 11.624 51.9496 11.912 53.0056 12.488C54.0856 13.064 54.9136 13.82 55.4896 14.756V11.912H61.6456V32H55.4896V29.156C54.8896 30.092 54.0496 30.848 52.9696 31.424C51.9136 32 50.6776 32.288 49.2616 32.288C47.6296 32.288 46.1416 31.868 44.7976 31.028C43.4536 30.164 42.3856 28.952 41.5936 27.392C40.8256 25.808 40.4416 23.984 40.4416 21.92ZM55.4896 21.956C55.4896 20.42 55.0576 19.208 54.1936 18.32C53.3536 17.432 52.3216 16.988 51.0976 16.988C49.8736 16.988 48.8296 17.432 47.9656 18.32C47.1256 19.184 46.7056 20.384 46.7056 21.92C46.7056 23.456 47.1256 24.68 47.9656 25.592C48.8296 26.48 49.8736 26.924 51.0976 26.924C52.3216 26.924 53.3536 26.48 54.1936 25.592C55.0576 24.704 55.4896 23.492 55.4896 21.956ZM85.9352 11.912V32H79.7792V29.264C79.1552 30.152 78.3032 30.872 77.2232 31.424C76.1672 31.952 74.9912 32.216 73.6952 32.216C72.1592 32.216 70.8032 31.88 69.6272 31.208C68.4512 30.512 67.5392 29.516 66.8912 28.22C66.2432 26.924 65.9192 25.4 65.9192 23.648V11.912H72.0392V22.82C72.0392 24.164 72.3872 25.208 73.0832 25.952C73.7792 26.696 74.7152 27.068 75.8912 27.068C77.0912 27.068 78.0392 26.696 78.7352 25.952C79.4312 25.208 79.7792 24.164 79.7792 22.82V11.912H85.9352ZM96.513 5.36V32H90.357V5.36H96.513ZM99.7502 21.92C99.7502 19.856 100.134 18.044 100.902 16.484C101.694 14.924 102.762 13.724 104.106 12.884C105.45 12.044 106.95 11.624 108.606 11.624C110.022 11.624 111.258 11.912 112.314 12.488C113.394 13.064 114.222 13.82 114.798 14.756V11.912H120.954V32H114.798V29.156C114.198 30.092 113.358 30.848 112.278 31.424C111.222 32 109.986 32.288 108.57 32.288C106.938 32.288 105.45 31.868 104.106 31.028C102.762 30.164 101.694 28.952 100.902 27.392C100.134 25.808 99.7502 23.984 99.7502 21.92ZM114.798 21.956C114.798 20.42 114.366 19.208 113.502 18.32C112.662 17.432 111.63 16.988 110.406 16.988C109.182 16.988 108.138 17.432 107.274 18.32C106.434 19.184 106.014 20.384 106.014 21.92C106.014 23.456 106.434 24.68 107.274 25.592C108.138 26.48 109.182 26.924 110.406 26.924C111.63 26.924 112.662 26.48 113.502 25.592C114.366 24.704 114.798 23.492 114.798 21.956Z" fill="#C3BEBC"/>
<path d="M13.312 50.024H10V65H3.844V50.024H1.612V44.912H3.844V44.336C3.844 41.864 4.552 39.992 5.968 38.72C7.384 37.424 9.46 36.776 12.196 36.776C12.652 36.776 12.988 36.788 13.204 36.812V42.032C12.028 41.96 11.2 42.128 10.72 42.536C10.24 42.944 10 43.676 10 44.732V44.912H13.312V50.024ZM35.1407 54.632C35.1407 55.208 35.1047 55.808 35.0327 56.432H21.1007C21.1967 57.68 21.5927 58.64 22.2887 59.312C23.0087 59.96 23.8847 60.284 24.9167 60.284C26.4527 60.284 27.5207 59.636 28.1207 58.34H34.6727C34.3367 59.66 33.7247 60.848 32.8367 61.904C31.9727 62.96 30.8807 63.788 29.5607 64.388C28.2407 64.988 26.7647 65.288 25.1327 65.288C23.1647 65.288 21.4127 64.868 19.8767 64.028C18.3407 63.188 17.1407 61.988 16.2767 60.428C15.4127 58.868 14.9807 57.044 14.9807 54.956C14.9807 52.868 15.4007 51.044 16.2407 49.484C17.1047 47.924 18.3047 46.724 19.8407 45.884C21.3767 45.044 23.1407 44.624 25.1327 44.624C27.0767 44.624 28.8047 45.032 30.3167 45.848C31.8287 46.664 33.0047 47.828 33.8447 49.34C34.7087 50.852 35.1407 52.616 35.1407 54.632ZM28.8407 53.012C28.8407 51.956 28.4807 51.116 27.7607 50.492C27.0407 49.868 26.1407 49.556 25.0607 49.556C24.0287 49.556 23.1527 49.856 22.4327 50.456C21.7367 51.056 21.3047 51.908 21.1367 53.012H28.8407ZM50.6283 44.696C52.9803 44.696 54.8523 45.464 56.2443 47C57.6603 48.512 58.3683 50.6 58.3683 53.264V65H52.2483V54.092C52.2483 52.748 51.9003 51.704 51.2043 50.96C50.5083 50.216 49.5723 49.844 48.3963 49.844C47.2203 49.844 46.2843 50.216 45.5883 50.96C44.8923 51.704 44.5443 52.748 44.5443 54.092V65H38.3883V44.912H44.5443V47.576C45.1683 46.688 46.0083 45.992 47.0643 45.488C48.1203 44.96 49.3083 44.696 50.6283 44.696ZM74.8861 44.696C77.2381 44.696 79.1101 45.464 80.5021 47C81.9181 48.512 82.6261 50.6 82.6261 53.264V65H76.5061V54.092C76.5061 52.748 76.1581 51.704 75.4621 50.96C74.7661 50.216 73.8301 49.844 72.6541 49.844C71.4781 49.844 70.5421 50.216 69.8461 50.96C69.1501 51.704 68.8021 52.748 68.8021 54.092V65H62.6461V44.912H68.8021V47.576C69.4261 46.688 70.2661 45.992 71.3221 45.488C72.3781 44.96 73.5661 44.696 74.8861 44.696ZM105.84 54.632C105.84 55.208 105.804 55.808 105.732 56.432H91.7999C91.8959 57.68 92.2919 58.64 92.9879 59.312C93.7079 59.96 94.5839 60.284 95.6159 60.284C97.1519 60.284 98.2199 59.636 98.8199 58.34H105.372C105.036 59.66 104.424 60.848 103.536 61.904C102.672 62.96 101.58 63.788 100.26 64.388C98.9399 64.988 97.4639 65.288 95.8319 65.288C93.8639 65.288 92.1119 64.868 90.5759 64.028C89.0399 63.188 87.8399 61.988 86.9759 60.428C86.1119 58.868 85.6799 57.044 85.6799 54.956C85.6799 52.868 86.0999 51.044 86.9399 49.484C87.8039 47.924 89.0039 46.724 90.5399 45.884C92.0759 45.044 93.8399 44.624 95.8319 44.624C97.7759 44.624 99.5039 45.032 101.016 45.848C102.528 46.664 103.704 47.828 104.544 49.34C105.408 50.852 105.84 52.616 105.84 54.632ZM99.5399 53.012C99.5399 51.956 99.1799 51.116 98.4599 50.492C97.7399 49.868 96.8399 49.556 95.7599 49.556C94.7279 49.556 93.8519 49.856 93.1319 50.456C92.4359 51.056 92.0039 51.908 91.8359 53.012H99.5399ZM115.243 48.26C115.963 47.156 116.863 46.292 117.943 45.668C119.023 45.02 120.223 44.696 121.543 44.696V51.212H119.851C118.315 51.212 117.163 51.548 116.395 52.22C115.627 52.868 115.243 54.02 115.243 55.676V65H109.087V44.912H115.243V48.26Z" fill="white"/>
<path d="M4.275 73.8H3.125V79H0.9875V73.8H0.2125V72.025H0.9875V71.825C0.9875 70.9667 1.23333 70.3167 1.725 69.875C2.21667 69.425 2.9375 69.2 3.8875 69.2C4.04583 69.2 4.1625 69.2042 4.2375 69.2125V71.025C3.82917 71 3.54167 71.0583 3.375 71.2C3.20833 71.3417 3.125 71.5958 3.125 71.9625V72.025H4.275V73.8ZM7.41689 73.1875C7.66689 72.8042 7.97939 72.5042 8.35439 72.2875C8.72939 72.0625 9.14606 71.95 9.60439 71.95V74.2125H9.01689C8.48356 74.2125 8.08356 74.3292 7.81689 74.5625C7.55023 74.7875 7.41689 75.1875 7.41689 75.7625V79H5.27939V72.025H7.41689V73.1875ZM13.8011 79.1C13.1177 79.1 12.5011 78.9542 11.9511 78.6625C11.4094 78.3708 10.9802 77.9542 10.6636 77.4125C10.3552 76.8708 10.2011 76.2375 10.2011 75.5125C10.2011 74.7958 10.3594 74.1667 10.6761 73.625C10.9927 73.075 11.4261 72.6542 11.9761 72.3625C12.5261 72.0708 13.1427 71.925 13.8261 71.925C14.5094 71.925 15.1261 72.0708 15.6761 72.3625C16.2261 72.6542 16.6594 73.075 16.9761 73.625C17.2927 74.1667 17.4511 74.7958 17.4511 75.5125C17.4511 76.2292 17.2886 76.8625 16.9636 77.4125C16.6469 77.9542 16.2094 78.3708 15.6511 78.6625C15.1011 78.9542 14.4844 79.1 13.8011 79.1ZM13.8011 77.25C14.2094 77.25 14.5552 77.1 14.8386 76.8C15.1302 76.5 15.2761 76.0708 15.2761 75.5125C15.2761 74.9542 15.1344 74.525 14.8511 74.225C14.5761 73.925 14.2344 73.775 13.8261 73.775C13.4094 73.775 13.0636 73.925 12.7886 74.225C12.5136 74.5167 12.3761 74.9458 12.3761 75.5125C12.3761 76.0708 12.5094 76.5 12.7761 76.8C13.0511 77.1 13.3927 77.25 13.8011 77.25ZM22.8351 71.95C23.6517 71.95 24.3017 72.2167 24.7851 72.75C25.2767 73.275 25.5226 74 25.5226 74.925V79H23.3976V75.2125C23.3976 74.7458 23.2767 74.3833 23.0351 74.125C22.7934 73.8667 22.4684 73.7375 22.0601 73.7375C21.6517 73.7375 21.3267 73.8667 21.0851 74.125C20.8434 74.3833 20.7226 74.7458 20.7226 75.2125V79H18.5851V72.025H20.7226V72.95C20.9392 72.6417 21.2309 72.4 21.5976 72.225C21.9642 72.0417 22.3767 71.95 22.8351 71.95ZM30.8954 77.1875V79H29.8079C29.0329 79 28.4287 78.8125 27.9954 78.4375C27.5621 78.0542 27.3454 77.4333 27.3454 76.575V73.8H26.4954V72.025H27.3454V70.325H29.4829V72.025H30.8829V73.8H29.4829V76.6C29.4829 76.8083 29.5329 76.9583 29.6329 77.05C29.7329 77.1417 29.8996 77.1875 30.1329 77.1875H30.8954ZM38.661 75.4C38.661 75.6 38.6485 75.8083 38.6235 76.025H33.786C33.8194 76.4583 33.9569 76.7917 34.1985 77.025C34.4485 77.25 34.7527 77.3625 35.111 77.3625C35.6444 77.3625 36.0152 77.1375 36.2235 76.6875H38.4985C38.3819 77.1458 38.1694 77.5583 37.861 77.925C37.561 78.2917 37.1819 78.5792 36.7235 78.7875C36.2652 78.9958 35.7527 79.1 35.186 79.1C34.5027 79.1 33.8944 78.9542 33.361 78.6625C32.8277 78.3708 32.411 77.9542 32.111 77.4125C31.811 76.8708 31.661 76.2375 31.661 75.5125C31.661 74.7875 31.8069 74.1542 32.0985 73.6125C32.3985 73.0708 32.8152 72.6542 33.3485 72.3625C33.8819 72.0708 34.4944 71.925 35.186 71.925C35.861 71.925 36.461 72.0667 36.986 72.35C37.511 72.6333 37.9194 73.0375 38.211 73.5625C38.511 74.0875 38.661 74.7 38.661 75.4ZM36.4735 74.8375C36.4735 74.4708 36.3485 74.1792 36.0985 73.9625C35.8485 73.7458 35.536 73.6375 35.161 73.6375C34.8027 73.6375 34.4985 73.7417 34.2485 73.95C34.0069 74.1583 33.8569 74.4542 33.7985 74.8375H36.4735ZM44.0387 71.95C44.8553 71.95 45.5053 72.2167 45.9887 72.75C46.4803 73.275 46.7262 74 46.7262 74.925V79H44.6012V75.2125C44.6012 74.7458 44.4803 74.3833 44.2387 74.125C43.997 73.8667 43.672 73.7375 43.2637 73.7375C42.8553 73.7375 42.5303 73.8667 42.2887 74.125C42.047 74.3833 41.9262 74.7458 41.9262 75.2125V79H39.7887V72.025H41.9262V72.95C42.1428 72.6417 42.4345 72.4 42.8012 72.225C43.1678 72.0417 43.5803 71.95 44.0387 71.95ZM47.7865 75.5C47.7865 74.7833 47.9199 74.1542 48.1865 73.6125C48.4615 73.0708 48.8324 72.6542 49.299 72.3625C49.7657 72.0708 50.2865 71.925 50.8615 71.925C51.3199 71.925 51.7365 72.0208 52.1115 72.2125C52.4949 72.4042 52.7949 72.6625 53.0115 72.9875V69.75H55.149V79H53.0115V78C52.8115 78.3333 52.524 78.6 52.149 78.8C51.7824 79 51.3532 79.1 50.8615 79.1C50.2865 79.1 49.7657 78.9542 49.299 78.6625C48.8324 78.3625 48.4615 77.9417 48.1865 77.4C47.9199 76.85 47.7865 76.2167 47.7865 75.5ZM53.0115 75.5125C53.0115 74.9792 52.8615 74.5583 52.5615 74.25C52.2699 73.9417 51.9115 73.7875 51.4865 73.7875C51.0615 73.7875 50.699 73.9417 50.399 74.25C50.1074 74.55 49.9615 74.9667 49.9615 75.5C49.9615 76.0333 50.1074 76.4583 50.399 76.775C50.699 77.0833 51.0615 77.2375 51.4865 77.2375C51.9115 77.2375 52.2699 77.0833 52.5615 76.775C52.8615 76.4667 53.0115 76.0458 53.0115 75.5125ZM58.9193 75.5C58.9193 74.7833 59.0527 74.1542 59.3193 73.6125C59.5943 73.0708 59.9652 72.6542 60.4318 72.3625C60.8985 72.0708 61.4193 71.925 61.9943 71.925C62.4527 71.925 62.8693 72.0208 63.2443 72.2125C63.6277 72.4042 63.9277 72.6625 64.1443 72.9875V69.75H66.2818V79H64.1443V78C63.9443 78.3333 63.6568 78.6 63.2818 78.8C62.9152 79 62.486 79.1 61.9943 79.1C61.4193 79.1 60.8985 78.9542 60.4318 78.6625C59.9652 78.3625 59.5943 77.9417 59.3193 77.4C59.0527 76.85 58.9193 76.2167 58.9193 75.5ZM64.1443 75.5125C64.1443 74.9792 63.9943 74.5583 63.6943 74.25C63.4027 73.9417 63.0443 73.7875 62.6193 73.7875C62.1943 73.7875 61.8318 73.9417 61.5318 74.25C61.2402 74.55 61.0943 74.9667 61.0943 75.5C61.0943 76.0333 61.2402 76.4583 61.5318 76.775C61.8318 77.0833 62.1943 77.2375 62.6193 77.2375C63.0443 77.2375 63.4027 77.0833 63.6943 76.775C63.9943 76.4667 64.1443 76.0458 64.1443 75.5125ZM74.4032 75.4C74.4032 75.6 74.3907 75.8083 74.3657 76.025H69.5282C69.5616 76.4583 69.6991 76.7917 69.9407 77.025C70.1907 77.25 70.4949 77.3625 70.8532 77.3625C71.3866 77.3625 71.7574 77.1375 71.9657 76.6875H74.2407C74.1241 77.1458 73.9116 77.5583 73.6032 77.925C73.3032 78.2917 72.9241 78.5792 72.4657 78.7875C72.0074 78.9958 71.4949 79.1 70.9282 79.1C70.2449 79.1 69.6366 78.9542 69.1032 78.6625C68.5699 78.3708 68.1532 77.9542 67.8532 77.4125C67.5532 76.8708 67.4032 76.2375 67.4032 75.5125C67.4032 74.7875 67.5491 74.1542 67.8407 73.6125C68.1407 73.0708 68.5574 72.6542 69.0907 72.3625C69.6241 72.0708 70.2366 71.925 70.9282 71.925C71.6032 71.925 72.2032 72.0667 72.7282 72.35C73.2532 72.6333 73.6616 73.0375 73.9532 73.5625C74.2532 74.0875 74.4032 74.7 74.4032 75.4ZM72.2157 74.8375C72.2157 74.4708 72.0907 74.1792 71.8407 73.9625C71.5907 73.7458 71.2782 73.6375 70.9032 73.6375C70.5449 73.6375 70.2407 73.7417 69.9907 73.95C69.7491 74.1583 69.5991 74.4542 69.5407 74.8375H72.2157ZM78.6684 77L80.1809 72.025H82.4559L79.9809 79H77.3434L74.8684 72.025H77.1559L78.6684 77ZM89.9306 75.4C89.9306 75.6 89.9181 75.8083 89.8931 76.025H85.0556C85.0889 76.4583 85.2264 76.7917 85.4681 77.025C85.7181 77.25 86.0222 77.3625 86.3806 77.3625C86.9139 77.3625 87.2847 77.1375 87.4931 76.6875H89.7681C89.6514 77.1458 89.4389 77.5583 89.1306 77.925C88.8306 78.2917 88.4514 78.5792 87.9931 78.7875C87.5347 78.9958 87.0222 79.1 86.4556 79.1C85.7722 79.1 85.1639 78.9542 84.6306 78.6625C84.0972 78.3708 83.6806 77.9542 83.3806 77.4125C83.0806 76.8708 82.9306 76.2375 82.9306 75.5125C82.9306 74.7875 83.0764 74.1542 83.3681 73.6125C83.6681 73.0708 84.0847 72.6542 84.6181 72.3625C85.1514 72.0708 85.7639 71.925 86.4556 71.925C87.1306 71.925 87.7306 72.0667 88.2556 72.35C88.7806 72.6333 89.1889 73.0375 89.4806 73.5625C89.7806 74.0875 89.9306 74.7 89.9306 75.4ZM87.7431 74.8375C87.7431 74.4708 87.6181 74.1792 87.3681 73.9625C87.1181 73.7458 86.8056 73.6375 86.4306 73.6375C86.0722 73.6375 85.7681 73.7417 85.5181 73.95C85.2764 74.1583 85.1264 74.4542 85.0681 74.8375H87.7431ZM93.1957 69.75V79H91.0582V69.75H93.1957ZM97.9197 79.1C97.2364 79.1 96.6197 78.9542 96.0697 78.6625C95.5281 78.3708 95.0989 77.9542 94.7822 77.4125C94.4739 76.8708 94.3197 76.2375 94.3197 75.5125C94.3197 74.7958 94.4781 74.1667 94.7947 73.625C95.1114 73.075 95.5447 72.6542 96.0947 72.3625C96.6447 72.0708 97.2614 71.925 97.9447 71.925C98.6281 71.925 99.2447 72.0708 99.7947 72.3625C100.345 72.6542 100.778 73.075 101.095 73.625C101.411 74.1667 101.57 74.7958 101.57 75.5125C101.57 76.2292 101.407 76.8625 101.082 77.4125C100.766 77.9542 100.328 78.3708 99.7697 78.6625C99.2197 78.9542 98.6031 79.1 97.9197 79.1ZM97.9197 77.25C98.3281 77.25 98.6739 77.1 98.9572 76.8C99.2489 76.5 99.3947 76.0708 99.3947 75.5125C99.3947 74.9542 99.2531 74.525 98.9697 74.225C98.6947 73.925 98.3531 73.775 97.9447 73.775C97.5281 73.775 97.1822 73.925 96.9072 74.225C96.6322 74.5167 96.4947 74.9458 96.4947 75.5125C96.4947 76.0708 96.6281 76.5 96.8947 76.8C97.1697 77.1 97.5114 77.25 97.9197 77.25ZM104.841 73.0125C105.05 72.6875 105.337 72.425 105.704 72.225C106.07 72.025 106.5 71.925 106.991 71.925C107.566 71.925 108.087 72.0708 108.554 72.3625C109.02 72.6542 109.387 73.0708 109.654 73.6125C109.929 74.1542 110.066 74.7833 110.066 75.5C110.066 76.2167 109.929 76.85 109.654 77.4C109.387 77.9417 109.02 78.3625 108.554 78.6625C108.087 78.9542 107.566 79.1 106.991 79.1C106.508 79.1 106.079 79 105.704 78.8C105.337 78.6 105.05 78.3417 104.841 78.025V82.325H102.704V72.025H104.841V73.0125ZM107.891 75.5C107.891 74.9667 107.741 74.55 107.441 74.25C107.15 73.9417 106.787 73.7875 106.354 73.7875C105.929 73.7875 105.566 73.9417 105.266 74.25C104.975 74.5583 104.829 74.9792 104.829 75.5125C104.829 76.0458 104.975 76.4667 105.266 76.775C105.566 77.0833 105.929 77.2375 106.354 77.2375C106.779 77.2375 107.141 77.0833 107.441 76.775C107.741 76.4583 107.891 76.0333 107.891 75.5ZM117.763 75.4C117.763 75.6 117.75 75.8083 117.725 76.025H112.888C112.921 76.4583 113.058 76.7917 113.3 77.025C113.55 77.25 113.854 77.3625 114.213 77.3625C114.746 77.3625 115.117 77.1375 115.325 76.6875H117.6C117.483 77.1458 117.271 77.5583 116.963 77.925C116.663 78.2917 116.283 78.5792 115.825 78.7875C115.367 78.9958 114.854 79.1 114.288 79.1C113.604 79.1 112.996 78.9542 112.463 78.6625C111.929 78.3708 111.513 77.9542 111.213 77.4125C110.913 76.8708 110.763 76.2375 110.763 75.5125C110.763 74.7875 110.908 74.1542 111.2 73.6125C111.5 73.0708 111.917 72.6542 112.45 72.3625C112.983 72.0708 113.596 71.925 114.288 71.925C114.963 71.925 115.563 72.0667 116.088 72.35C116.613 72.6333 117.021 73.0375 117.313 73.5625C117.613 74.0875 117.763 74.7 117.763 75.4ZM115.575 74.8375C115.575 74.4708 115.45 74.1792 115.2 73.9625C114.95 73.7458 114.638 73.6375 114.263 73.6375C113.904 73.6375 113.6 73.7417 113.35 73.95C113.108 74.1583 112.958 74.4542 112.9 74.8375H115.575ZM121.028 73.1875C121.278 72.8042 121.59 72.5042 121.965 72.2875C122.34 72.0625 122.757 71.95 123.215 71.95V74.2125H122.628C122.094 74.2125 121.694 74.3292 121.428 74.5625C121.161 74.7875 121.028 75.1875 121.028 75.7625V79H118.89V72.025H121.028V73.1875Z" fill="#FEBB00"/>
</g>
<defs>
<clipPath id="clip0_1_10">
<rect width="125" height="86" fill="white"/>
</clipPath>
</defs>
</svg>
